<svg id="Layer_1" enable-background="new 0 0 512.173 512.173" height="512" viewBox="0 0 512.173 512.173" width="512" xmlns="http://www.w3.org/2000/svg"><g><g><path d="m493.431 364.657-35.201-13.003-8.425-17.05-39.98-14.769-62.019 26.522-20.19-20.19h-166.064l-37.83 23.61h-13.052v15h7.703v39.511h15v-42.853l32.475-20.268h155.555l26.294 26.299-1.031 29.189h-57.779v-29.19h-15v29.19h-57.463v15h130.949c24.399-10.548 4.036-1.816 106.53-45.609l28.725 10.611 9.078 18.371-64.264 27.496-7.504-15.184-13.447 6.646 7.14 14.448-156.675 67.034-130.068-36h-16.218v15h14.181l133.172 36.86 254.15-108.74zm-130.731 24.045v-27.451l-3.467-3.467 50.997-21.809 28.773 10.629 3.859 7.809z"/><path d="m0 423.757h15v-97.77h58.17v158.781h-58.17v-46.011h-15v61.011h88.17v-188.781h-88.17z"/><path d="m255.602 60.858c-51.699 0-93.759 42.06-93.759 93.759s42.06 93.759 93.759 93.759 93.759-42.06 93.759-93.759-42.06-93.759-93.759-93.759zm0 172.519c-43.428 0-78.759-35.331-78.759-78.759s35.331-78.759 78.759-78.759 78.759 35.331 78.759 78.759-35.331 78.759-78.759 78.759z"/><path d="m255.604 308.378c84.309 0 152.44-67.62 153.739-151.362.622-40.066-14.095-78.216-41.438-107.423l-10.95 10.251c51.024 54.502 49.813 139.841-3.239 192.892-54.219 54.228-141.996 54.235-196.233 0-54.228-54.229-54.236-141.997 0-196.234 51.725-51.724 134.509-54.286 189.226-6.542l9.862-11.302c-60.61-52.889-152.332-50.125-209.694 7.237-59.95 59.95-59.95 157.497 0 217.447 29.042 29.041 67.656 45.036 108.727 45.036z"/><path d="m263.102 95.052h-15v14.905h-18.58v52.16h37.16v22.16h-37.16v15h18.58v14.906h15v-14.906h18.58v-52.16h-37.16v-22.16h37.16v-15h-18.58z"/></g><g><path d="m51.587 458.38h-15v-15h15zm0-45h-15v-15h15zm0-45h-15v-15h15z"/></g><g><g><path d="m132.204 147.117h15v15h-15z"/></g><g><path d="m364.204 147.117h15v15h-15z"/></g></g><g><g><path d="m248.102 263.015h15v15h-15z"/></g><g><path d="m248.102 31.015h15v15h-15z"/></g></g></g></svg>